<svg aria-hidden="true" style="position: absolute; width: 0; height: 0; overflow: hidden;" version="1.1" xmlns="http://www.w3.org/2000/svg" xmlns:xlink="http://www.w3.org/1999/xlink">
<defs>

<symbol id="home" viewBox="0 0 32 32">
<path d="M32 18.451l-16-12.42-16 12.42v-5.064l16-12.42 16 12.42zM28 18v12h-8v-8h-8v8h-8v-12l12-9z"></path>
</symbol>
<symbol id="history" viewBox="0 0 34 32">
<path d="M20 2c7.732 0 14 6.268 14 14s-6.268 14-14 14v-3c2.938 0 5.701-1.144 7.778-3.222s3.222-4.84 3.222-7.778c0-2.938-1.144-5.701-3.222-7.778s-4.84-3.222-7.778-3.222c-2.938 0-5.701 1.144-7.778 3.222-1.598 1.598-2.643 3.601-3.041 5.778h5.819l-7 8-7-8h5.143c0.971-6.784 6.804-12 13.857-12zM26 14v4h-8v-10h4v6z"></path>
</symbol>
<symbol id="plus" viewBox="0 0 32 32">
<path d="M31 12h-11v-11c0-0.552-0.448-1-1-1h-6c-0.552 0-1 0.448-1 1v11h-11c-0.552 0-1 0.448-1 1v6c0 0.552 0.448 1 1 1h11v11c0 0.552 0.448 1 1 1h6c0.552 0 1-0.448 1-1v-11h11c0.552 0 1-0.448 1-1v-6c0-0.552-0.448-1-1-1z"></path>
</symbol>
<symbol id="minus" viewBox="0 0 32 32">
<path d="M0 13v6c0 0.552 0.448 1 1 1h30c0.552 0 1-0.448 1-1v-6c0-0.552-0.448-1-1-1h-30c-0.552 0-1 0.448-1 1z"></path>
</symbol>
<symbol id="logout" viewBox="0 0 32 32">
<path d="M24 20v-4h-10v-4h10v-4l6 6zM22 18v8h-10v6l-12-6v-26h22v10h-2v-8h-16l8 4v18h8v-6z"></path>
</symbol>
<symbol id="arrow" viewBox="0 0 32 32">
<path d="M19.414 27.414l10-10c0.781-0.781 0.781-2.047 0-2.828l-10-10c-0.781-0.781-2.047-0.781-2.828 0s-0.781 2.047 0 2.828l6.586 6.586h-19.172c-1.105 0-2 0.895-2 2s0.895 2 2 2h19.172l-6.586 6.586c-0.39 0.39-0.586 0.902-0.586 1.414s0.195 1.024 0.586 1.414c0.781 0.781 2.047 0.781 2.828 0z"></path>
</symbol>
<symbol id="arrow-left" viewBox="0 0 32 32">
<path d="M12.586 27.414l-10-10c-0.781-0.781-0.781-2.047 0-2.828l10-10c0.781-0.781 2.047-0.781 2.828 0s0.781 2.047 0 2.828l-6.586 6.586h19.172c1.105 0 2 0.895 2 2s-0.895 2-2 2h-19.172l6.586 6.586c0.39 0.39 0.586 0.902 0.586 1.414s-0.195 1.024-0.586 1.414c-0.781 0.781-2.047 0.781-2.828 0z"></path>
</symbol>
<symbol id="bitcoin" viewBox="0 0 50 50">
<path d="M 25 2 C 12.317 2 2 12.318 2 25 C 2 37.682 12.317 48 25 48 C 37.683 48 48 37.682 48 25 C 48 12.318 37.683 2 25 2 z M 21 10 L 23 10 L 23 13 L 25 13 L 25 10 L 27 10 L 27 13.015625 C 29.064 13.107625 33.900391 13.797391 33.900391 18.900391 C 33.900391 23.000391 30.399219 24.100781 29.699219 24.300781 L 29.699219 24.400391 C 31.199219 24.600391 34.800781 25.999219 34.800781 30.199219 C 34.800781 36.277219 29.301 36.927187 27 36.992188 L 27 40 L 25 40 L 25 37 L 23 37 L 23 40 L 21 40 L 21 37 L 16 37 L 16 13 L 21 13 L 21 10 z M 18.300781 14.900391 L 18.300781 23.5 L 26.199219 23.5 C 27.099219 23.5 27.899609 23.399219 28.599609 23.199219 C 29.299609 22.999219 29.800781 22.700781 30.300781 22.300781 C 30.700781 21.900781 31.100781 21.5 31.300781 21 C 31.500781 20.5 31.599609 20.000391 31.599609 19.400391 C 31.599609 16.400391 29.799219 14.900391 26.199219 14.900391 L 18.300781 14.900391 z M 18.300781 25.5 L 18.300781 35.099609 L 26.199219 35.099609 C 27.099219 35.099609 27.899609 35.000391 28.599609 34.900391 C 29.399609 34.800391 29.999609 34.499609 30.599609 34.099609 C 31.199609 33.699609 31.6 33.199609 32 32.599609 C 32.3 31.999609 32.5 31.199219 32.5 30.199219 C 32.5 28.699219 32.000391 27.499219 30.900391 26.699219 C 29.800391 25.899219 28.199219 25.5 26.199219 25.5 L 18.300781 25.5 z"/>
</symbol>
</defs>
</svg>
